<?xml version="1.0" encoding="utf-8"?>
<!-- Generator: Adobe Illustrator 22.0.0, SVG Export Plug-In . SVG Version: 6.00 Build 0)  -->
<svg version="1.1" id="Warstwa_1" xmlns="http://www.w3.org/2000/svg" xmlns:xlink="http://www.w3.org/1999/xlink" x="0px" y="0px"
	 viewBox="0 0 36.5 57.9" style="enable-background:new 0 0 36.5 57.9;" xml:space="preserve">
<style type="text/css">
	.st0{fill:#FFFFFF;}
</style>
<g>
	<path class="st0" d="M17.7,45.5c-8.9,0-16.2-7.1-16.2-15.8c0-8.7,7.3-15.8,16.2-15.8c4,0,7.8,1.4,10.8,4l1.8,1.6l0,0l-3.7,3.7l0,0
		L25,21.8c-2-1.7-4.6-2.7-7.3-2.7c-6,0-11,4.7-11,10.6c0,5.8,4.9,10.6,11,10.6c2.3,0,4.5-0.7,6.3-2v-5c-1.4-0.2-2.8-0.6-4.1-1.2
		l-2-0.9l0,0l2.1-4.8l0,0l2,0.9c1.5,0.7,3,1,4.6,1s3.2-0.3,4.6-1l2-0.9l0,0l2.1,4.8l0,0l-2,0.9c-1.3,0.6-2.7,1-4.1,1.2v7.4l0,0
		l-0.8,0.7C25.5,44.1,21.7,45.5,17.7,45.5z M17.7,13.9C8.8,13.9,1.5,21,1.5,29.7c0,8.7,7.2,15.8,16.2,15.8c4,0,7.8-1.5,10.8-4.1
		l0.8-0.7v-7.4l0,0c1.4-0.2,2.8-0.6,4.1-1.2l2-0.9l-2.1-4.7l-2,0.9c-1.5,0.7-3,1-4.6,1s-3.2-0.3-4.6-1l-2-0.9l-2.1,4.7l2,0.9
		c1.3,0.6,2.7,1,4.1,1.2l0,0v5l0,0c-1.8,1.3-4.1,2-6.4,2c-6.1,0-11-4.8-11-10.6c0-5.8,4.9-10.6,11-10.6c2.8,0,5.4,1,7.3,2.7l1.6,1.4
		l3.7-3.7L28.5,18C25.5,15.4,21.7,13.9,17.7,13.9z"/>
	<path class="st0" d="M17.8,45C9.2,45,2.1,38.1,2.1,29.7c0-8.4,7-15.2,15.6-15.2c3.8,0,7.5,1.4,10.4,3.9l1.4,1.2l0,0l-2.9,2.9l0,0
		l-1.2-1c-2.1-1.8-4.8-2.8-7.7-2.8c-6.3,0-11.5,5-11.5,11.1c0,6.1,5.2,11.1,11.5,11.1c2.5,0,4.9-0.8,6.9-2.2v-5.8
		c-1.5-0.2-3-0.6-4.5-1.3l-1.6-0.7l0,0l1.7-3.7l0,0l1.5,0.7c1.5,0.7,3.2,1,4.9,1c1.7,0,3.3-0.3,4.9-1l1.5-0.7l0,0l1.7,3.7l0,0
		l-1.5,0.7c-1.4,0.6-2.9,1.1-4.5,1.3v7.7l0,0L28.2,41C25.3,43.6,21.6,45,17.8,45z M17.8,14.5c-8.6,0-15.6,6.8-15.6,15.2
		c0,8.4,7,15.2,15.6,15.2c3.8,0,7.5-1.4,10.4-3.9l0.6-0.5v-7.7l0,0c1.5-0.2,3-0.6,4.5-1.3l1.5-0.7l-1.7-3.7l-1.5,0.7
		c-1.5,0.7-3.2,1-4.9,1c-1.7,0-3.3-0.4-4.9-1l-1.5-0.7l-1.7,3.7l1.5,0.7c1.4,0.6,2.9,1.1,4.5,1.3l0,0v5.8l0,0
		c-2,1.4-4.4,2.2-6.9,2.2c-6.4,0-11.5-5-11.5-11.2c0-6.2,5.2-11.2,11.5-11.2c2.9,0,5.6,1,7.7,2.8l1.2,1l2.9-2.8l-1.3-1.2
		C25.3,15.9,21.6,14.5,17.8,14.5z"/>
	<path class="st0" d="M17.9,44.5c-8.3,0-15.1-6.6-15.1-14.7C2.8,21.6,9.5,15,17.9,15c3.7,0,7.3,1.3,10.1,3.8l0.9,0.8l0,0l-2.1,2.1
		L25.9,21c-2.2-1.9-5-3-8-3c-6.6,0-12,5.2-12,11.6c0,6.4,5.4,11.7,12,11.7c2.7,0,5.3-0.9,7.4-2.5v-6.5c-1.7-0.2-3.3-0.6-4.8-1.3
		l-1.1-0.5l1.3-2.8l1.1,0.5c1.6,0.7,3.3,1.1,5.1,1.1s3.5-0.4,5.1-1.1l1.1-0.5l0,0l1.2,2.8l-1.1,0.5c-1.5,0.7-3.1,1.1-4.8,1.3v7.9
		L28,40.6C25.2,43.1,21.6,44.5,17.9,44.5z M17.9,15.1c-8.3,0-15,6.6-15,14.6c0,8.1,6.7,14.7,15,14.7c3.7,0,7.3-1.3,10.1-3.8l0.4-0.3
		v-7.9l0,0c1.7-0.2,3.3-0.6,4.8-1.3l1-0.4L32.9,28l-1,0.4c-1.6,0.7-3.3,1.1-5.1,1.1s-3.5-0.4-5.1-1.1l-1-0.4l-1.2,2.6l1,0.4
		c1.5,0.7,3.1,1.1,4.8,1.3l0,0v6.6l0,0c-2.1,1.6-4.8,2.5-7.5,2.5c-6.7,0-12.1-5.3-12.1-11.8c0-6.5,5.4-11.7,12.1-11.7
		c3,0,5.9,1.1,8.1,3l0.8,0.7l2-2l-0.9-0.8C25.1,16.4,21.6,15.1,17.9,15.1z"/>
	<path class="st0" d="M18,44c-8,0-14.6-6.4-14.6-14.2c0-7.8,6.5-14.2,14.6-14.2c3.6,0,7.1,1.3,9.7,3.7l0.5,0.5l-1.4,1.4l-0.5-0.4
		c-2.3-2-5.2-3.1-8.4-3.1C11,17.6,5.4,23,5.4,29.7c0,6.7,5.6,12.2,12.5,12.2c2.9,0,5.7-1,7.9-2.8v-7.2c-1.8-0.1-3.5-0.5-5.1-1.3
		l-0.6-0.3l0.8-1.9l0.6,0.3c1.7,0.8,3.5,1.1,5.3,1.1c1.8,0,3.6-0.4,5.3-1.1l0.6-0.3l0.8,1.9L33,30.7c-1.6,0.7-3.3,1.1-5.1,1.3v8.1
		l-0.2,0.2C25,42.6,21.5,44,18,44z M18,15.7c-7.9,0-14.4,6.3-14.4,14c0,7.7,6.5,14,14.4,14c3.5,0,7-1.3,9.7-3.6l0.2-0.1v-8.2l0.1,0
		c1.8-0.1,3.5-0.5,5.1-1.3l0.4-0.2l-0.7-1.5L32.3,29c-1.7,0.8-3.5,1.1-5.4,1.1c-1.9,0-3.7-0.4-5.4-1.1l-0.4-0.2l-0.7,1.5l0.4,0.2
		c1.6,0.7,3.3,1.1,5.1,1.3l0.1,0v7.5l0,0c-2.2,1.8-5.1,2.8-8.1,2.8c-7,0-12.7-5.6-12.7-12.4c0-6.8,5.7-12.3,12.7-12.3
		c3.2,0,6.2,1.1,8.5,3.1l0.3,0.3l1.2-1.2l-0.4-0.3C24.9,17,21.5,15.7,18,15.7z"/>
	<path class="st0" d="M21.5,29.4l-0.3,0.7c1.7,0.8,3.6,1.2,5.5,1.2v8.1c-2.3,1.9-5.3,3.1-8.6,3.1c-7.3,0-13.2-5.8-13.2-12.8
		c0-7.1,5.9-12.8,13.2-12.8c3.4,0,6.5,1.2,8.8,3.3l0.5-0.5c-2.5-2.2-5.7-3.5-9.3-3.5c-7.6,0-13.9,6.1-13.9,13.5
		c0,7.5,6.3,13.6,13.9,13.6c3.6,0,6.9-1.4,9.4-3.5v-8.5c1.9-0.1,3.7-0.5,5.5-1.2l-0.3-0.7C29,31,25,31,21.5,29.4z"/>
</g>
</svg>
