<?xml version="1.0" encoding="utf-8"?>
<!-- Generator: Adobe Illustrator 22.0.0, SVG Export Plug-In . SVG Version: 6.00 Build 0)  -->
<svg version="1.1" id="Warstwa_1" xmlns="http://www.w3.org/2000/svg" xmlns:xlink="http://www.w3.org/1999/xlink" x="0px" y="0px"
	 viewBox="0 0 104 25.9" style="enable-background:new 0 0 104 25.9;" xml:space="preserve">
<style type="text/css">
	.st0{fill:#9A6326;}
</style>
<g>
	<path class="st0" d="M37.3,25.9H34l0,0l-2-4.4c-1.2,0.6-2.6,0.9-3.9,0.9c-1.3,0-2.7-0.3-3.9-0.9l-2,4.4H19l0,0L27,8.2h2.1l0,0
		L37.3,25.9z M34,25.8h3.2L29.1,8.3H27L19,25.8h3.2l2-4.4l0,0c1.2,0.6,2.6,0.9,3.9,0.9c1.3,0,2.7-0.3,3.9-0.9l0,0l0,0L34,25.8z
		 M28.1,19.5c-0.9,0-1.9-0.2-2.7-0.6l0,0l0,0l2.7-5.9l0,0l2.7,5.9l0,0C30,19.3,29,19.5,28.1,19.5z M25.4,18.9
		c0.8,0.4,1.8,0.6,2.7,0.6c0.9,0,1.8-0.2,2.7-0.6L28.1,13L25.4,18.9z"/>
	<path class="st0" d="M36.8,25.6h-2.6l0,0l-2-4.5c-1.3,0.6-2.6,1-4,1c-1.4,0-2.8-0.3-4-1l-2,4.5h-2.6l0,0l7.8-17h1.7l0,0L36.8,25.6z
		 M34.2,25.5h2.5l-7.9-17h-1.7l-7.8,17H22l2-4.5l0,0c1.3,0.6,2.6,1,4,1c1.4,0,2.8-0.3,4-1l0,0l0,0L34.2,25.5z M28.1,19.8
		c-1.1,0-2.2-0.3-3.1-0.8l0,0l0,0l3.1-6.8l0,0l3.1,6.8l0,0C30.2,19.5,29.2,19.8,28.1,19.8z M25,19c1,0.5,2,0.8,3.1,0.8
		c1.1,0,2.1-0.3,3.1-0.8l-3.1-6.7L25,19z"/>
	<path class="st0" d="M36.3,25.3h-1.9l0,0l-2.1-4.6c-1.3,0.7-2.7,1.1-4.2,1.1c-1.5,0-2.9-0.4-4.2-1.1l-2.1,4.6h-1.9l0,0l7.5-16.4
		h1.3l0,0L36.3,25.3z M34.4,25.2h1.8L28.7,8.9h-1.2L20,25.2h1.8l2.1-4.6l0,0c1.3,0.7,2.7,1.1,4.2,1.1c1.5,0,2.9-0.4,4.2-1.1l0,0l0,0
		L34.4,25.2z M28.1,20.1c-1.2,0-2.4-0.3-3.5-1l0,0l0,0l3.5-7.7l0,0.1l3.5,7.7l0,0C30.5,19.8,29.3,20.1,28.1,20.1z M24.6,19.1
		c1.1,0.6,2.3,0.9,3.5,0.9c1.2,0,2.4-0.3,3.5-0.9l-3.5-7.6L24.6,19.1z"/>
	<path class="st0" d="M35.9,25h-1.3l0,0l-2.1-4.7c-1.3,0.8-2.8,1.2-4.3,1.2c-1.5,0-3-0.4-4.3-1.2L21.7,25h-1.3l0-0.1l7.2-15.8h0.9
		l0,0L35.9,25z M34.6,24.9h1.1L28.5,9.2h-0.8l-7.2,15.6h1.1l2.2-4.7l0.1,0c1.3,0.8,2.8,1.2,4.3,1.2c1.5,0,3-0.4,4.3-1.2l0.1,0l0,0.1
		L34.6,24.9z M28.1,20.5c-1.4,0-2.8-0.4-3.9-1.2l0,0l0,0l3.9-8.6l4,8.7l0,0C30.8,20.1,29.5,20.5,28.1,20.5z M24.3,19.2
		c1.2,0.7,2.5,1.1,3.8,1.1c1.4,0,2.7-0.4,3.8-1.1l-3.9-8.4L24.3,19.2z"/>
	<path class="st0" d="M27.8,9.5l-6.9,15.1h0.5l2.1-4.6l0.1-0.3c1.3,0.9,2.9,1.4,4.5,1.4c1.6,0,3.1-0.5,4.5-1.4l0.1,0.3l2.1,4.6h0.5
		l-7-15.1H27.8z M28.1,20.7c-1.5,0-3-0.5-4.3-1.4l4.3-9.4l4.3,9.4C31.1,20.2,29.6,20.7,28.1,20.7z"/>
	<path class="st0" d="M51.1,25.9H40.8V8.2h2.9v14.7h7.3V25.9z M40.8,25.8h10.2v-2.9h-7.3V8.3h-2.9V25.8z"/>
	<path class="st0" d="M50.8,25.6h-9.7v-17h2.3v14.7h7.3V25.6z M41.2,25.5h9.6v-2.3h-7.3V8.6h-2.3V25.5z"/>
	<path class="st0" d="M50.5,25.3h-9.1V8.8h1.7v14.7h7.3V25.3z M41.5,25.2h9v-1.6h-7.3V8.9h-1.6V25.2z"/>
	<path class="st0" d="M50.2,25h-8.5V9.1h1.2v14.7h7.3V25z M41.8,24.9h8.3v-0.9h-7.3V9.2h-0.9V24.9z"/>
	<polygon class="st0" points="42.5,9.5 42.1,9.5 42.1,24.6 49.9,24.6 49.9,24.2 42.5,24.2 	"/>
	<path class="st0" d="M59.1,25.9h-2.9V8.2h2.9V25.9z M56.2,25.8h2.9V8.3h-2.9V25.8z"/>
	<path class="st0" d="M58.8,25.6h-2.3v-17h2.3V25.6z M56.5,25.5h2.3v-17h-2.3V25.5z"/>
	<path class="st0" d="M58.5,25.3h-1.7V8.8h1.7V25.3z M56.8,25.2h1.6V8.9h-1.6V25.2z"/>
	<path class="st0" d="M58.2,25H57V9.1h1.2V25z M57.1,24.9h0.9V9.2h-0.9V24.9z"/>
	<rect x="57.4" y="9.5" class="st0" width="0.4" height="15.1"/>
	<path class="st0" d="M80.6,25.9h-2.5l0,0l-9.4-12.3v12.3h-2.9V8.2h2.5l0,0l9.4,12.3V8.2h2.9V25.9z M78.1,25.8h2.5V8.3h-2.9v12.3
		l0,0L68.2,8.3h-2.5v17.6h2.9V13.6l0,0L78.1,25.8z"/>
	<path class="st0" d="M80.3,25.6h-2.1l0,0l-9.9-12.8v12.8H66v-17h2.1l0,0l9.9,12.8V8.5h2.3V25.6z M78.2,25.5h2v-17H78v12.9l0,0
		L68,8.6h-2v17h2.3V12.6l0,0L78.2,25.5z"/>
	<path class="st0" d="M80,25.3h-1.6l0,0L68,11.8v13.4h-1.7V8.8h1.6l0,0l10.3,13.4V8.8H80V25.3z M78.4,25.2h1.5V8.9h-1.6v13.5l0-0.1
		L67.9,8.9h-1.5v16.3H68V11.7l0,0.1L78.4,25.2z"/>
	<path class="st0" d="M79.7,25h-1.2l0,0L67.7,11v14h-1.2V9.1h1.2l0,0l10.7,14v-14h1.2V25z M78.5,24.9h1V9.2h-0.9v14.2l-0.1-0.1
		L67.7,9.2h-1v15.6h0.9V10.7l0.1,0.1L78.5,24.9z"/>
	<polygon class="st0" points="78.9,24.2 67.6,9.5 66.9,9.5 66.9,24.6 67.4,24.6 67.4,9.9 78.7,24.6 79.3,24.6 79.3,9.5 78.9,9.5 	
		"/>
	<path class="st0" d="M9,25.9c-5,0-9-4-9-8.8c0-4.8,4-8.8,9-8.8c2.2,0,4.3,0.8,6,2.3l1,0.9l0,0l-2.1,2l0,0l-0.9-0.8
		c-1.1-1-2.5-1.5-4.1-1.5c-3.4,0-6.1,2.6-6.1,5.9c0,3.3,2.7,5.9,6.1,5.9c1.3,0,2.5-0.4,3.5-1.1v-2.8c-0.8-0.1-1.6-0.4-2.3-0.7
		l-1.1-0.5l0,0l1.2-2.6l0,0l1.1,0.5c0.8,0.4,1.7,0.6,2.6,0.6s1.8-0.2,2.6-0.6l1.1-0.5l0,0l1.2,2.6l0,0l-1.1,0.5
		c-0.7,0.3-1.5,0.6-2.3,0.7v4.1l0,0L15,23.6C13.4,25,11.2,25.9,9,25.9z M9,8.3c-5,0-9,3.9-9,8.8c0,4.9,4,8.8,9,8.8
		c2.2,0,4.3-0.8,6-2.3l0.4-0.4v-4.1l0,0c0.8-0.1,1.6-0.4,2.3-0.7l1.1-0.5l-1.2-2.6l-1.1,0.5c-0.8,0.4-1.7,0.6-2.6,0.6
		s-1.8-0.2-2.6-0.6l-1.1-0.5l-1.2,2.6l1.1,0.5c0.7,0.3,1.5,0.6,2.3,0.7l0,0v2.8l0,0c-1,0.7-2.3,1.1-3.5,1.1c-3.4,0-6.1-2.7-6.1-5.9
		c0-3.3,2.7-5.9,6.1-5.9c1.5,0,3,0.5,4.1,1.5l0.9,0.8l2-2l-1-0.9C13.4,9.1,11.2,8.3,9,8.3z"/>
	<path class="st0" d="M9.1,25.6c-4.8,0-8.7-3.8-8.7-8.5c0-4.7,3.9-8.5,8.7-8.5c2.1,0,4.2,0.8,5.8,2.2l0.8,0.7l0,0L14,13l0,0
		l-0.7-0.6c-1.2-1-2.7-1.6-4.3-1.6c-3.5,0-6.4,2.8-6.4,6.2c0,3.4,2.9,6.2,6.4,6.2c1.4,0,2.7-0.4,3.8-1.2v-3.2
		c-0.9-0.1-1.7-0.3-2.5-0.7l-0.9-0.4l0,0l0.9-2.1l0,0l0.9,0.4c0.9,0.4,1.8,0.6,2.7,0.6c0.9,0,1.8-0.2,2.7-0.6l0.9-0.4l0,0l0.9,2.1
		l0,0l-0.9,0.4c-0.8,0.4-1.6,0.6-2.5,0.7v4.3l0,0l-0.3,0.3C13.3,24.8,11.2,25.6,9.1,25.6z M9.1,8.6c-4.8,0-8.7,3.8-8.7,8.5
		c0,4.7,3.9,8.5,8.7,8.5c2.1,0,4.2-0.8,5.8-2.2l0.3-0.3v-4.3l0,0c0.9-0.1,1.7-0.3,2.5-0.7l0.8-0.4l-0.9-2.1L16.8,16
		c-0.9,0.4-1.8,0.6-2.7,0.6c-0.9,0-1.9-0.2-2.7-0.6l-0.8-0.4l-0.9,2.1l0.8,0.4c0.8,0.4,1.6,0.6,2.5,0.7l0,0V22l0,0
		c-1.1,0.8-2.5,1.3-3.9,1.3c-3.5,0-6.4-2.8-6.4-6.2c0-3.4,2.9-6.2,6.4-6.2c1.6,0,3.1,0.6,4.3,1.6L14,13l1.6-1.6l-0.7-0.6
		C13.3,9.3,11.2,8.6,9.1,8.6z"/>
	<path class="st0" d="M9.1,25.3c-4.6,0-8.4-3.7-8.4-8.2c0-4.5,3.8-8.2,8.4-8.2c2.1,0,4.1,0.7,5.6,2.1l0.5,0.5l0,0L14,12.6l-0.5-0.4
		c-1.2-1.1-2.8-1.7-4.5-1.7c-3.7,0-6.7,2.9-6.7,6.5c0,3.6,3,6.5,6.7,6.5c1.5,0,3-0.5,4.1-1.4v-3.6c-0.9-0.1-1.8-0.3-2.7-0.7L10,17.6
		l0.7-1.6l0.6,0.3c0.9,0.4,1.8,0.6,2.8,0.6s1.9-0.2,2.8-0.6l0.6-0.3l0,0l0.7,1.5l-0.6,0.3c-0.8,0.4-1.7,0.6-2.7,0.7v4.4l-0.2,0.2
		C13.2,24.5,11.2,25.3,9.1,25.3z M9.1,8.9c-4.6,0-8.4,3.7-8.4,8.1c0,4.5,3.7,8.2,8.4,8.2c2.1,0,4-0.8,5.6-2.1l0.2-0.2v-4.4l0,0
		c0.9-0.1,1.8-0.3,2.7-0.7l0.5-0.2l-0.7-1.5L17,16.3c-0.9,0.4-1.9,0.6-2.8,0.6s-1.9-0.2-2.8-0.6l-0.5-0.2l-0.7,1.5l0.5,0.2
		c0.8,0.4,1.7,0.6,2.7,0.7l0,0v3.7l0,0c-1.2,0.9-2.7,1.4-4.2,1.4c-3.7,0-6.8-2.9-6.8-6.6c0-3.6,3-6.5,6.8-6.5c1.7,0,3.3,0.6,4.5,1.7
		l0.4,0.4l1.1-1.1L14.7,11C13.1,9.6,11.2,8.9,9.1,8.9z"/>
	<path class="st0" d="M9.2,25C4.7,25,1,21.4,1,17c0-4.4,3.6-7.9,8.1-7.9c2,0,3.9,0.7,5.4,2l0.3,0.3l-0.8,0.8L13.8,12
		c-1.3-1.1-2.9-1.7-4.7-1.7c-3.9,0-7,3-7,6.8c0,3.7,3.1,6.8,7,6.8c1.6,0,3.2-0.5,4.4-1.5v-4c-1-0.1-1.9-0.3-2.8-0.7l-0.3-0.1l0.5-1
		l0.3,0.1c0.9,0.4,1.9,0.6,2.9,0.6c1,0,2-0.2,2.9-0.6l0.3-0.1l0.5,1l-0.3,0.1c-0.9,0.4-1.8,0.6-2.8,0.7v4.5l-0.1,0.1
		C13.1,24.2,11.2,25,9.2,25z M9.2,9.2c-4.4,0-8,3.5-8,7.8c0,4.3,3.6,7.8,8,7.8c2,0,3.9-0.7,5.4-2l0.1-0.1v-4.6l0.1,0
		c1-0.1,1.9-0.3,2.8-0.7l0.2-0.1l-0.4-0.8l-0.2,0.1c-0.9,0.4-2,0.6-3,0.6s-2-0.2-3-0.6l-0.2-0.1l-0.4,0.8l0.2,0.1
		c0.9,0.4,1.9,0.6,2.8,0.7l0.1,0v4.2l0,0c-1.3,1-2.9,1.6-4.5,1.6c-3.9,0-7.1-3.1-7.1-6.9c0-3.8,3.2-6.9,7.1-6.9
		c1.8,0,3.5,0.6,4.7,1.8l0.2,0.2l0.6-0.6l-0.2-0.2C13,10,11.1,9.2,9.2,9.2z"/>
	<path class="st0" d="M11.1,16.9l-0.2,0.4c1,0.4,2,0.7,3,0.7v4.5c-1.3,1.1-3,1.7-4.8,1.7c-4,0-7.4-3.2-7.4-7.2
		c0-3.9,3.3-7.1,7.4-7.1c1.9,0,3.6,0.7,4.9,1.8l0.3-0.3c-1.4-1.2-3.2-1.9-5.2-1.9C5,9.5,1.4,12.9,1.4,17c0,4.2,3.5,7.6,7.8,7.6
		c2,0,3.8-0.8,5.2-2v-4.7c1,0,2.1-0.3,3-0.7l-0.2-0.4C15.3,17.7,13.1,17.7,11.1,16.9z"/>
	<path class="st0" d="M57.6,7.6c-1.3,0-2.6-0.3-3.8-0.8l-1.1-0.5l0,0l1.2-2.6l0,0L55,4.1c0.8,0.4,1.7,0.6,2.6,0.6
		c0.9,0,1.8-0.2,2.6-0.6l1.1-0.5l0,0l1.2,2.6l0,0l-1.1,0.5C60.2,7.3,58.9,7.6,57.6,7.6z M52.7,6.3l1.1,0.5c1.2,0.5,2.5,0.8,3.8,0.8
		c1.3,0,2.6-0.3,3.8-0.8l1.1-0.5l-1.2-2.6l-1.1,0.5c-0.8,0.4-1.7,0.6-2.6,0.6S55.9,4.5,55,4.1l-1.1-0.5L52.7,6.3z"/>
	<path class="st0" d="M57.6,7.3c-1.3,0-2.5-0.3-3.6-0.8l-0.9-0.4l0,0L54.1,4l0,0l0.9,0.4C55.8,4.8,56.7,5,57.6,5
		c0.9,0,1.8-0.2,2.7-0.6L61.2,4l0,0l0.9,2.1l0,0l-0.9,0.4C60.1,7,58.9,7.3,57.6,7.3z M53.1,6.1L54,6.5c1.2,0.5,2.4,0.8,3.6,0.8
		c1.3,0,2.5-0.3,3.6-0.8l0.8-0.4l-0.9-2.1l-0.8,0.4C59.5,4.8,58.6,5,57.6,5c-0.9,0-1.9-0.2-2.7-0.6l-0.8-0.4L53.1,6.1z"/>
	<path class="st0" d="M57.6,7c-1.2,0-2.4-0.3-3.5-0.8L53.5,6l0.7-1.6l0.6,0.3c0.9,0.4,1.8,0.6,2.8,0.6c1,0,1.9-0.2,2.8-0.6L61,4.4
		l0,0L61.7,6l-0.6,0.3C60,6.7,58.8,7,57.6,7z M53.6,5.9l0.5,0.2c1.1,0.5,2.3,0.8,3.5,0.8c1.2,0,2.4-0.3,3.5-0.8l0.5-0.2L61,4.5
		l-0.5,0.2c-0.9,0.4-1.9,0.6-2.8,0.6c-1,0-1.9-0.2-2.8-0.6l-0.5-0.2L53.6,5.9z"/>
	<path class="st0" d="M57.6,6.7c-1.2,0-2.3-0.2-3.4-0.7l-0.3-0.1l0.5-1l0.3,0.1c0.9,0.4,1.9,0.6,2.9,0.6c1,0,2-0.2,2.9-0.6l0.3-0.1
		l0.5,1L61,6C59.9,6.5,58.8,6.7,57.6,6.7z M54,5.8l0.2,0.1c1.1,0.5,2.2,0.7,3.4,0.7c1.2,0,2.3-0.2,3.4-0.7l0.2-0.1l-0.4-0.8L60.6,5
		c-0.9,0.4-2,0.6-3,0.6s-2-0.2-3-0.6l-0.2-0.1L54,5.8z"/>
	<path class="st0" d="M54.5,5.3l-0.2,0.4c1,0.5,2.1,0.7,3.3,0.7c1.1,0,2.2-0.2,3.3-0.7l-0.2-0.4C58.7,6.2,56.5,6.2,54.5,5.3z"/>
	<path class="st0" d="M102.5,25.9h-3.3l0,0l-2-4.4c-1.2,0.6-2.6,0.9-3.9,0.9c-1.3,0-2.7-0.3-3.9-0.9l-2,4.4h-3.3l0,0l8.1-17.6h2.1
		l0,0L102.5,25.9z M99.2,25.8h3.2L94.3,8.3h-2.1l-8.1,17.6h3.2l2-4.4l0,0c1.2,0.6,2.6,0.9,3.9,0.9c1.3,0,2.7-0.3,3.9-0.9l0,0l0,0
		L99.2,25.8z M93.3,19.5c-0.9,0-1.9-0.2-2.7-0.6l0,0l0,0l2.7-5.9l0,0l2.7,5.9l0,0C95.2,19.3,94.2,19.5,93.3,19.5z M90.6,18.9
		c0.8,0.4,1.8,0.6,2.7,0.6c0.9,0,1.8-0.2,2.7-0.6L93.3,13L90.6,18.9z"/>
	<path class="st0" d="M102,25.6h-2.6l0,0l-2-4.5c-1.3,0.6-2.6,1-4,1c-1.4,0-2.8-0.3-4-1l-2,4.5h-2.6l0,0l7.8-17h1.7l0,0L102,25.6z
		 M99.4,25.5h2.5l-7.9-17h-1.7l-7.8,17h2.5l2-4.5l0,0c1.2,0.6,2.6,1,4,1c1.4,0,2.8-0.3,4-1l0,0l0,0L99.4,25.5z M93.3,19.8
		c-1.1,0-2.2-0.3-3.1-0.8l0,0l0,0l3.1-6.8l0,0l3.1,6.8l0,0C95.4,19.5,94.4,19.8,93.3,19.8z M90.2,19c1,0.5,2,0.8,3.1,0.8
		c1.1,0,2.1-0.3,3.1-0.8l-3.1-6.7L90.2,19z"/>
	<path class="st0" d="M101.5,25.3h-1.9l0,0l-2.1-4.6c-1.3,0.7-2.7,1.1-4.2,1.1c-1.5,0-2.9-0.4-4.2-1.1L87,25.3h-1.9l0,0l7.5-16.4
		h1.3l0,0L101.5,25.3z M99.6,25.2h1.8L93.9,8.9h-1.2l-7.5,16.3H87l2.1-4.6l0,0c1.3,0.7,2.7,1.1,4.2,1.1c1.5,0,2.9-0.4,4.2-1.1l0,0
		l0,0L99.6,25.2z M93.3,20.1c-1.2,0-2.4-0.3-3.5-1l0,0l0,0l3.5-7.7l0,0.1l3.5,7.7l0,0C95.7,19.8,94.5,20.1,93.3,20.1z M89.8,19.1
		c1.1,0.6,2.3,0.9,3.5,0.9c1.2,0,2.4-0.3,3.5-0.9l-3.5-7.6L89.8,19.1z"/>
	<path class="st0" d="M101.1,25h-1.3l0,0l-2.1-4.7c-1.3,0.8-2.8,1.2-4.3,1.2c-1.5,0-3-0.4-4.3-1.2L86.9,25h-1.4l0-0.1l7.2-15.8h1
		l0,0L101.1,25z M99.8,24.8h1L93.6,9.3h-0.8l-7.1,15.6h1.1l2.2-4.8l0.1,0c1.3,0.8,2.8,1.2,4.3,1.2c1.5,0,3-0.4,4.3-1.2l0.1,0
		L99.8,24.8z M93.3,20.5c-1.4,0-2.8-0.4-3.9-1.2l0,0l0-0.1l3.9-8.6l4,8.7l-0.1,0C96.1,20.1,94.7,20.5,93.3,20.5z M89.5,19.2
		c1.2,0.7,2.5,1.1,3.8,1.1c1.3,0,2.7-0.4,3.8-1.1l-3.9-8.3L89.5,19.2z"/>
	<path class="st0" d="M93.5,9.5H93l-6.9,15.1h0.5l2.1-4.6l0.1-0.3c1.3,0.9,2.9,1.4,4.5,1.4c1.6,0,3.1-0.5,4.5-1.4l0.1,0.3l2.1,4.6
		h0.5L93.5,9.5z M93.3,20.7c-1.5,0-3-0.5-4.3-1.4l4.3-9.4l4.3,9.4C96.3,20.2,94.8,20.7,93.3,20.7z"/>
</g>
</svg>
