<?xml version="1.0" encoding="utf-8"?>
<!-- Generator: Adobe Illustrator 22.0.0, SVG Export Plug-In . SVG Version: 6.00 Build 0)  -->
<svg version="1.1" id="Warstwa_1" xmlns="http://www.w3.org/2000/svg" xmlns:xlink="http://www.w3.org/1999/xlink" x="0px" y="0px"
	 viewBox="0 0 36.5 57.9" style="enable-background:new 0 0 36.5 57.9;" xml:space="preserve">
<style type="text/css">
	.st0{fill:#9A6326;}
</style>
<g>
	<path class="st0" d="M18.5,38.5c-8.3,0-15.1-6.6-15.1-14.7c0-8.1,6.8-14.7,15.1-14.7c3.7,0,7.3,1.3,10.1,3.8l1.7,1.5l0,0l-3.4,3.4
		l0,0l-1.5-1.3c-1.8-1.6-4.3-2.5-6.8-2.5c-5.6,0-10.2,4.4-10.2,9.8c0,5.4,4.6,9.9,10.2,9.9c2.1,0,4.2-0.7,5.9-1.8v-4.7
		c-1.3-0.2-2.6-0.6-3.9-1.1l-1.9-0.9l0,0l2-4.4l0,0l1.9,0.8c1.4,0.6,2.8,0.9,4.3,0.9c1.5,0,2.9-0.3,4.3-0.9l1.9-0.9l0,0l2,4.4l0,0
		L33.2,26c-1.2,0.5-2.5,0.9-3.9,1.1v6.9l0,0l-0.7,0.6C25.8,37.2,22.2,38.5,18.5,38.5z M18.5,9.1c-8.3,0-15.1,6.6-15.1,14.7
		c0,8.1,6.8,14.7,15.1,14.7c3.7,0,7.3-1.4,10.1-3.8l0.7-0.6v-6.9l0,0c1.3-0.2,2.6-0.6,3.9-1.1l1.9-0.8l-2-4.4l-1.9,0.8
		c-1.4,0.6-2.8,0.9-4.3,0.9c-1.5,0-3-0.3-4.3-0.9l-1.9-0.8l-2,4.4l1.9,0.8c1.2,0.6,2.5,0.9,3.9,1.1l0,0v4.7l0,0
		c-1.7,1.2-3.8,1.8-5.9,1.8c-5.6,0-10.2-4.4-10.2-9.9c0-5.4,4.6-9.9,10.2-9.9c2.6,0,5,0.9,6.8,2.5l1.5,1.3l3.4-3.4l-1.7-1.5
		C25.8,10.4,22.2,9.1,18.5,9.1z"/>
	<path class="st0" d="M18.6,38C10.6,38,4,31.6,4,23.8C4,16,10.6,9.6,18.6,9.6c3.6,0,7,1.3,9.7,3.6l1.3,1.1l0,0l-2.7,2.7l0,0l-1.1-1
		c-1.9-1.7-4.5-2.6-7.2-2.6c-5.9,0-10.7,4.6-10.7,10.4c0,5.7,4.8,10.4,10.7,10.4c2.3,0,4.6-0.7,6.4-2.1v-5.4
		c-1.4-0.2-2.8-0.6-4.2-1.2l-1.4-0.6l0,0l1.6-3.5l0,0l1.4,0.6c1.4,0.6,3,1,4.5,1c1.6,0,3.1-0.3,4.5-1l1.4-0.6l0,0l1.6,3.5l0,0
		L33,25.6c-1.3,0.6-2.7,1-4.2,1.2v7.1l0,0l-0.5,0.5C25.6,36.7,22.2,38,18.6,38z M18.6,9.6c-8,0-14.5,6.4-14.5,14.2
		c0,7.8,6.5,14.2,14.5,14.2c3.6,0,7-1.3,9.7-3.7l0.5-0.5v-7.2l0,0c1.4-0.2,2.8-0.6,4.2-1.2l1.4-0.6l-1.5-3.4l-1.4,0.6
		c-1.4,0.6-3,1-4.5,1s-3.1-0.3-4.5-1L21,21.5l-1.5,3.4l1.4,0.6c1.3,0.6,2.7,1,4.2,1.2l0,0v5.4l0,0c-1.8,1.3-4.1,2.1-6.4,2.1
		c-5.9,0-10.8-4.7-10.8-10.4c0-5.7,4.8-10.4,10.8-10.4c2.7,0,5.3,0.9,7.2,2.7l1.1,1l2.7-2.7l-1.2-1.1C25.6,10.9,22.2,9.6,18.6,9.6z"
		/>
	<path class="st0" d="M18.7,37.5c-7.8,0-14.1-6.2-14.1-13.7c0-7.6,6.3-13.7,14.1-13.7c3.5,0,6.8,1.3,9.4,3.5l0.9,0.8l0,0l-2,2
		l-0.8-0.7c-2-1.8-4.7-2.8-7.5-2.8c-6.2,0-11.2,4.9-11.2,10.8c0,6,5,10.9,11.2,10.9c2.5,0,5-0.8,6.9-2.3v-6.1
		c-1.5-0.2-3-0.5-4.5-1.2l-1-0.4l1.2-2.6l1,0.4c1.5,0.7,3.1,1,4.7,1s3.2-0.3,4.7-1l1-0.4l0,0l1.2,2.6l-1,0.4c-1.4,0.6-2.9,1-4.4,1.2
		v7.4L28.1,34C25.5,36.3,22.1,37.5,18.7,37.5z M18.7,10.2c-7.7,0-14,6.1-14,13.6c0,7.5,6.3,13.7,14,13.7c3.4,0,6.8-1.3,9.4-3.5
		l0.3-0.3v-7.4l0,0c1.5-0.1,3-0.5,4.5-1.2l0.9-0.4l-1.1-2.4l-0.9,0.4c-1.5,0.7-3.1,1-4.8,1c-1.7,0-3.3-0.3-4.8-1l-0.9-0.4l-1.1,2.4
		l0.9,0.4c1.4,0.6,2.9,1,4.5,1.2l0,0v6.2l0,0c-2,1.5-4.4,2.4-7,2.4c-6.2,0-11.3-4.9-11.3-11c0-6,5.1-10.9,11.3-10.9
		c2.8,0,5.5,1,7.6,2.8l0.7,0.6l1.9-1.9L28,13.7C25.4,11.4,22.1,10.2,18.7,10.2z"/>
	<path class="st0" d="M18.8,37.1c-7.5,0-13.6-6-13.6-13.3c0-7.3,6.1-13.2,13.6-13.2c3.3,0,6.6,1.2,9.1,3.4l0.5,0.4L27,15.7l-0.4-0.4
		c-2.1-1.9-4.9-2.9-7.8-2.9c-6.4,0-11.7,5.1-11.7,11.3c0,6.3,5.2,11.4,11.7,11.4c2.7,0,5.3-0.9,7.4-2.6v-6.7
		c-1.6-0.1-3.2-0.5-4.7-1.2l-0.6-0.3l0.8-1.7l0.6,0.2c1.6,0.7,3.2,1.1,4.9,1.1c1.7,0,3.4-0.4,4.9-1.1l0.6-0.2l0.8,1.7l-0.6,0.3
		c-1.5,0.7-3.1,1.1-4.7,1.2v7.6l-0.2,0.2C25.3,35.8,22.1,37.1,18.8,37.1z M18.8,10.7c-7.4,0-13.4,5.9-13.4,13.1
		c0,7.2,6,13.1,13.4,13.1c3.3,0,6.5-1.2,9-3.4l0.1-0.1v-7.7l0.1,0c1.7-0.1,3.2-0.5,4.7-1.2l0.4-0.2l-0.6-1.4l-0.4,0.2
		c-1.6,0.7-3.3,1.1-5,1.1c-1.7,0-3.4-0.4-5-1.1l-0.4-0.2l-0.6,1.4l0.4,0.2c1.5,0.7,3.1,1.1,4.8,1.2l0.1,0v7l0,0
		c-2.1,1.7-4.8,2.6-7.5,2.6c-6.5,0-11.9-5.2-11.9-11.5c0-6.3,5.3-11.5,11.9-11.5c3,0,5.8,1,7.9,2.9l0.3,0.3l1.1-1.1l-0.3-0.3
		C25.2,11.9,22.1,10.7,18.8,10.7z"/>
	<path class="st0" d="M22,23.5l-0.3,0.6c1.6,0.7,3.3,1.1,5.1,1.2v7.6c-2.1,1.8-5,2.9-8,2.9c-6.8,0-12.3-5.4-12.3-12
		c0-6.6,5.5-11.9,12.3-11.9c3.1,0,6,1.1,8.2,3l0.5-0.5c-2.3-2-5.4-3.3-8.7-3.3c-7.1,0-13,5.7-13,12.6c0,6.9,5.9,12.7,13,12.7
		c3.3,0,6.4-1.3,8.7-3.3v-7.9c1.8,0,3.5-0.4,5.1-1.2l-0.3-0.6C29.1,25,25.3,25,22,23.5z"/>
</g>
</svg>
