<?xml version="1.0" encoding="utf-8"?>
<!-- Generator: Adobe Illustrator 22.0.0, SVG Export Plug-In . SVG Version: 6.00 Build 0)  -->
<svg version="1.1" id="Warstwa_1" xmlns="http://www.w3.org/2000/svg" xmlns:xlink="http://www.w3.org/1999/xlink" x="0px" y="0px"
	 viewBox="0 0 104 25.9" style="enable-background:new 0 0 104 25.9;" xml:space="preserve">
<style type="text/css">
	.st0{fill:#FFFFFF;}
</style>
<g>
	<path class="st0" d="M27.6,9l-7.7,16.9h1.9l2.2-4.7c1.3,0.7,2.8,1.1,4.3,1.1c1.5,0,3-0.4,4.3-1.1l2.2,4.7h1.9L28.9,9H27.6z
		 M31.9,19.6c-1.1,0.7-2.3,1-3.6,1c-1.3,0-2.5-0.3-3.6-1l3.6-7.9L31.9,19.6z"/>
	<polygon class="st0" points="43.8,9 42.1,9 42.1,25.9 51.4,25.9 51.4,24.2 43.8,24.2 	"/>
	<rect x="57.9" y="9" class="st0" width="1.7" height="16.9"/>
	<polygon class="st0" points="80,22.9 69.3,9 67.7,9 67.7,25.9 69.4,25.9 69.4,12 80.1,25.9 81.8,25.9 81.8,9 80,9 	"/>
	<path class="st0" d="M16.7,16.7c-0.9,0.4-1.9,0.6-2.9,0.6s-2-0.2-2.9-0.6l-0.6-0.3L9.6,18l0.6,0.3c0.9,0.4,1.8,0.6,2.8,0.7v3.8
		c-1.2,0.9-2.7,1.4-4.3,1.4c-3.8,0-6.9-3-6.9-6.7c0-3.7,3.1-6.7,6.9-6.7c1.7,0,3.4,0.6,4.6,1.7l0.5,0.4l1.2-1.2l-0.5-0.5
		C12.8,9.8,10.8,9,8.7,9C3.9,9,0,12.8,0,17.4c0,4.7,3.9,8.5,8.7,8.5c2.1,0,4.2-0.8,5.8-2.2l0.2-0.2V19c1-0.1,1.9-0.3,2.8-0.7L18,18
		l-0.7-1.6L16.7,16.7z"/>
	<path class="st0" d="M61.7,4.7c-0.9,0.4-1.9,0.6-2.9,0.6c-1,0-2-0.2-2.9-0.6l-0.6-0.3L54.5,6l0.6,0.3c1.2,0.5,2.4,0.8,3.6,0.8
		c1.3,0,2.5-0.3,3.6-0.8L62.9,6l-0.7-1.6L61.7,4.7z"/>
	<path class="st0" d="M96.2,9h-1.3l-7.7,16.9h1.9l2.2-4.7c1.3,0.7,2.8,1.1,4.3,1.1c1.5,0,3-0.4,4.3-1.1l2.2,4.7h1.9L96.2,9z
		 M99.2,19.6c-1.1,0.7-2.3,1-3.6,1c-1.3,0-2.5-0.3-3.6-1l3.6-7.9L99.2,19.6z"/>
</g>
</svg>
